<svg width="142" height="69" viewBox="0 0 142 69" fill="none" xmlns="http://www.w3.org/2000/svg">
<g clip-path="url(#clip0_66_991)">
<path d="M91.7154 21H73.722C72.9033 21 72.2301 21.6714 72.2301 22.4879V32.8488C72.2301 33.6653 72.9033 34.3367 73.722 34.3367H91.7154C92.5341 34.3367 93.2073 33.6653 93.2073 32.8488V22.4879C93.2073 21.6714 92.5341 21 91.7154 21ZM76.2327 31.5242V23.7944C76.2327 23.7944 76.2691 23.7218 76.3055 23.7218H89.1683C89.1683 23.7218 89.2411 23.7581 89.2411 23.7944V31.506C89.2411 31.506 89.2047 31.5786 89.1683 31.5786H76.3055C76.3055 31.5786 76.2327 31.5423 76.2327 31.506" fill="#181A1F" fill-opacity="0.3"/>
<path d="M20.5241 21H16.8126C16.8126 21 16.6852 21.0544 16.6852 21.127V31.506C16.6852 31.506 16.667 31.5786 16.6125 31.5786H4.3682C4.3682 31.5786 4.29542 31.5423 4.29542 31.506V29.3105C4.29542 29.3105 4.24084 29.1835 4.16807 29.1835H0.43839C0.43839 29.1835 0.311035 29.2379 0.311035 29.3105V32.8306C0.311035 33.6472 0.984196 34.3185 1.80291 34.3185H19.1777C19.9965 34.3185 20.6696 33.6472 20.6696 32.8306V21.127C20.6696 21.127 20.615 21 20.5423 21" fill="#181A1F" fill-opacity="0.3"/>
<path d="M68.555 21H48.1237C48.1237 21 47.9963 21.0544 47.9963 21.127V23.5948C47.9963 23.5948 48.0509 23.7218 48.1237 23.7218H56.2744C56.2744 23.7218 56.3472 23.7581 56.3472 23.7944V34.1734C56.3472 34.1734 56.4017 34.3004 56.4745 34.3004H60.186C60.186 34.3004 60.3316 34.246 60.3316 34.1734V23.7944C60.3316 23.7944 60.3497 23.7218 60.4043 23.7218H68.555C68.555 23.7218 68.6824 23.6673 68.6824 23.5948V21.127C68.6824 21.127 68.6278 21 68.555 21Z" fill="#181A1F" fill-opacity="0.3"/>
<path d="M116.859 21H113.147C113.147 21 113.02 21.0544 113.02 21.127V31.506C113.02 31.506 112.984 31.5786 112.947 31.5786H100.812C100.812 31.5786 100.739 31.5423 100.739 31.506V21.127C100.739 21.127 100.685 21 100.612 21H96.9006C96.9006 21 96.7732 21.0544 96.7732 21.127V32.8306C96.7732 33.6472 97.4282 34.3185 98.2469 34.3185H115.531C116.349 34.3185 117.023 33.6472 117.023 32.8306V21.127C117.023 21.127 116.968 21 116.877 21" fill="#181A1F" fill-opacity="0.3"/>
<path d="M141.256 34.0827L133.67 28.8931H139.583C140.401 28.8931 141.056 28.2399 141.056 27.4234V22.4879C141.056 21.6714 140.401 21 139.583 21H120.698C120.698 21 120.57 21.0544 120.57 21.127V34.1915C120.57 34.1915 120.625 34.3185 120.698 34.3185H124.409C124.409 34.3185 124.537 34.2641 124.537 34.1915V26.6431L135.689 34.2641C135.689 34.2641 135.817 34.3185 135.889 34.3185H141.184C141.311 34.3185 141.366 34.1552 141.256 34.0827ZM124.609 23.7399H137.017C137.017 23.7399 137.09 23.7762 137.09 23.8125V26.0988C137.09 26.0988 137.054 26.1714 137.017 26.1714H124.609C124.609 26.1714 124.537 26.1351 124.537 26.0988V23.8125C124.537 23.8125 124.573 23.7399 124.609 23.7399Z" fill="#181A1F" fill-opacity="0.3"/>
<path d="M44.303 23.7399C44.303 23.7399 44.4304 23.6855 44.4304 23.6129V21.127C44.4304 21.127 44.3758 21 44.303 21H25.691C24.8723 21 24.1992 21.6532 24.1992 22.4879V32.8488C24.1992 33.6653 24.8723 34.3367 25.691 34.3367H44.303C44.303 34.3367 44.4304 34.2823 44.4304 34.2097V31.7419C44.4304 31.7419 44.3758 31.6149 44.303 31.6149H28.2745C28.2745 31.6149 28.2017 31.5786 28.2017 31.5423V29.1109C28.2017 29.1109 28.2381 29.0383 28.2745 29.0383H43.2842C43.2842 29.0383 43.4116 28.9839 43.4116 28.9113V26.4435C43.4116 26.4435 43.357 26.3165 43.2842 26.3165H28.2745C28.2745 26.3165 28.2017 26.2802 28.2017 26.244V23.8125C28.2017 23.8125 28.2381 23.7399 28.2745 23.7399H44.303Z" fill="#181A1F" fill-opacity="0.3"/>
<path d="M21.8886 40.3246C22.2525 40.3246 22.5981 40.3972 22.9074 40.5242C23.2167 40.6694 23.4896 40.8508 23.7261 41.0867C23.9626 41.3226 24.1446 41.5948 24.2901 41.9032C24.4357 42.2117 24.5085 42.5564 24.5266 42.9012C24.5266 43.0464 24.5266 43.246 24.5266 43.4637C24.5266 43.6815 24.5266 43.9173 24.5266 44.1351C24.5266 44.3528 24.5266 44.5887 24.5266 44.8065C24.5266 45.0242 24.5266 45.2056 24.5266 45.369C24.5085 45.7137 24.4175 46.0403 24.2901 46.3669C24.1446 46.6754 23.9626 46.9476 23.7261 47.1835C23.4896 47.4194 23.2167 47.6008 22.9074 47.746C22.5981 47.8911 22.2525 47.9456 21.8886 47.9456H17.1219C17.1219 47.9456 17.0309 47.9093 17.0309 47.8548V40.4335C17.0309 40.4335 17.0673 40.3427 17.1219 40.3427H21.8886V40.3246ZM21.743 46.6391C21.925 46.6391 22.0705 46.6028 22.1979 46.5121C22.3252 46.4395 22.4344 46.3306 22.5436 46.2036C22.6345 46.0766 22.7073 45.9314 22.7619 45.7863C22.8165 45.623 22.8528 45.4778 22.8528 45.3327C22.8528 45.1875 22.8528 45.006 22.8528 44.8065C22.8528 44.6069 22.8528 44.3891 22.8528 44.1532C22.8528 43.9173 22.8528 43.7177 22.8528 43.5C22.8528 43.2823 22.8528 43.1008 22.8528 42.9556C22.8528 42.8105 22.8165 42.6472 22.7619 42.4839C22.7073 42.3206 22.6345 42.1754 22.5436 42.0665C22.4526 41.9395 22.3434 41.8488 22.1979 41.7581C22.0523 41.6673 21.9068 41.631 21.743 41.631H18.7229V46.6391H21.743Z" fill="#181A1F" fill-opacity="0.3"/>
<path d="M30.203 42.502C30.203 42.502 30.294 42.5383 30.294 42.5927V43.5907C30.294 43.5907 30.2576 43.6815 30.203 43.6815H28.0198C27.8015 43.6815 27.6196 43.6996 27.4922 43.7359C27.3648 43.7722 27.2557 43.8266 27.1829 43.881C27.1101 43.9536 27.0556 44.0262 27.0374 44.1169C27.0192 44.2077 27.001 44.3165 27.001 44.4254V47.8185C27.001 47.8185 26.9646 47.9093 26.91 47.9093H25.6183C25.6183 47.9093 25.5273 47.873 25.5273 47.8185V44.2802C25.5273 43.6814 25.7274 43.246 26.1095 42.9375C26.4916 42.629 27.1101 42.4839 27.9288 42.4839H30.2212L30.203 42.502Z" fill="#181A1F" fill-opacity="0.3"/>
<path d="M32.641 40.3246C32.641 40.3246 32.7319 40.3609 32.7319 40.4153V41.6492C32.7319 41.6492 32.6956 41.7399 32.641 41.7399H31.3492C31.3492 41.7399 31.2583 41.7036 31.2583 41.6492V40.4153C31.2583 40.4153 31.2946 40.3246 31.3492 40.3246H32.641ZM32.641 42.502C32.641 42.502 32.7319 42.5383 32.7319 42.5927V47.8367C32.7319 47.8367 32.6956 47.9274 32.641 47.9274H31.3492C31.3492 47.9274 31.2583 47.8911 31.2583 47.8367V42.5927C31.2583 42.5927 31.2946 42.502 31.3492 42.502H32.641Z" fill="#181A1F" fill-opacity="0.3"/>
<path d="M40.3005 42.4657C40.4096 42.4657 40.446 42.5202 40.3914 42.6109C40.0457 43.3911 39.7365 44.0806 39.4636 44.7157C39.3544 44.9879 39.227 45.2419 39.1179 45.5141C39.0087 45.7681 38.8996 46.004 38.8086 46.2218C38.7176 46.4395 38.6448 46.6028 38.5721 46.748C38.5175 46.8931 38.4811 46.9839 38.4629 47.002C38.3537 47.2198 38.2446 47.4012 38.1354 47.5464C38.0263 47.6915 37.8807 47.7823 37.717 47.8367C37.6442 47.873 37.535 47.8911 37.4259 47.9093C37.3167 47.9274 37.1894 47.9274 37.062 47.9274C36.9347 47.9274 36.8255 47.9274 36.7163 47.9093C36.6072 47.8911 36.5162 47.873 36.4252 47.8367C36.2615 47.7641 36.1159 47.6734 35.9886 47.5464C35.8612 47.4194 35.7521 47.2379 35.6611 47.002C35.6611 46.9657 35.6065 46.8931 35.5337 46.748C35.461 46.6028 35.3882 46.4214 35.2972 46.2218C35.2063 46.004 35.0971 45.7681 34.9879 45.5141C34.8788 45.2601 34.7514 44.9879 34.6423 44.7157C34.3694 44.0988 34.0601 43.3911 33.7144 42.6109C33.678 42.5202 33.7144 42.4657 33.8054 42.4657H35.0061C35.1517 42.4657 35.2426 42.5383 35.2972 42.6653L36.9346 46.3488C36.9346 46.3488 36.9528 46.4032 36.9892 46.4214C36.9892 46.4214 37.0256 46.4214 37.0438 46.4214C37.0802 46.4214 37.0984 46.4214 37.0984 46.4214C37.1348 46.4214 37.153 46.3851 37.1712 46.3488L38.7904 42.6653C38.845 42.5383 38.9541 42.4657 39.0997 42.4657H40.3186H40.3005Z" fill="#181A1F" fill-opacity="0.3"/>
<path d="M45.7949 42.502C46.0678 42.502 46.3225 42.5565 46.5408 42.6472C46.7592 42.7379 46.9775 42.8831 47.1412 43.0645C47.305 43.246 47.4323 43.4456 47.5415 43.6633C47.6506 43.881 47.687 44.1351 47.687 44.371V45.2964C47.687 45.4234 47.6325 45.5504 47.5233 45.6593C47.4141 45.7863 47.2686 45.8407 47.1048 45.8407H42.8657V46.0403C42.8657 46.2036 42.9203 46.3669 43.0295 46.5121C43.1386 46.6573 43.2842 46.7298 43.4843 46.7298H47.305C47.305 46.7298 47.3959 46.7661 47.3959 46.8206V47.8185C47.3959 47.8185 47.3596 47.9093 47.305 47.9093H43.2842C43.0113 47.9093 42.7566 47.8548 42.5201 47.7278C42.2836 47.6189 42.1016 47.4556 41.9379 47.2742C41.7741 47.0927 41.6468 46.875 41.5376 46.6391C41.4466 46.4032 41.3921 46.1673 41.3739 45.9133C41.3739 45.8044 41.3739 45.6956 41.3739 45.5685C41.3739 45.4415 41.3739 45.3145 41.3739 45.1875C41.3739 45.0605 41.3739 44.9335 41.3739 44.8065C41.3739 44.6794 41.3739 44.5706 41.3739 44.4617C41.3739 44.2077 41.4285 43.9718 41.5376 43.7359C41.6286 43.5 41.7741 43.2823 41.9379 43.1008C42.1016 42.9194 42.3017 42.7561 42.5383 42.6472C42.7748 42.5383 43.0113 42.4839 43.3024 42.4839H45.8131L45.7949 42.502ZM46.0314 44.6794C46.0314 44.6794 46.1224 44.6794 46.1588 44.625C46.1952 44.5706 46.2134 44.5524 46.2134 44.498V44.3165C46.2134 44.0806 46.1588 43.9173 46.0678 43.8266C45.9586 43.7359 45.8131 43.6996 45.6312 43.6996H43.5025C43.3206 43.6996 43.1568 43.754 43.0477 43.881C42.9385 44.0081 42.8839 44.1532 42.8839 44.3165V44.6794H46.0496H46.0314Z" fill="#181A1F" fill-opacity="0.3"/>
<path d="M61.5687 40.3246C61.5687 40.3246 61.6415 40.3427 61.6597 40.379C61.6597 40.4153 61.6597 40.4516 61.6415 40.4698L57.5297 44.9879V47.8367C57.5297 47.8367 57.4934 47.9274 57.4388 47.9274H55.9651C55.9651 47.9274 55.8741 47.8911 55.8741 47.8367V44.9516L51.7624 40.4698C51.7624 40.4698 51.726 40.4153 51.7624 40.379C51.7624 40.3427 51.7988 40.3246 51.8352 40.3246H53.4908C53.6363 40.3246 53.7637 40.379 53.8546 40.4698L56.4927 43.3367C56.4927 43.3367 56.6383 43.4274 56.7292 43.4274C56.8202 43.4274 56.9112 43.3911 56.9657 43.3367L59.5856 40.4698C59.6766 40.3609 59.7857 40.3246 59.9495 40.3246H61.6051H61.5687Z" fill="#181A1F" fill-opacity="0.3"/>
<path d="M65.0983 42.4476C65.4621 42.4476 65.826 42.4476 66.1899 42.4657C66.5356 42.4657 66.863 42.5383 67.1359 42.629C67.4088 42.7198 67.6272 42.8468 67.8091 43.0282C67.9728 43.1915 68.1184 43.3911 68.2094 43.6452C68.3185 43.881 68.3731 44.1351 68.4095 44.3891C68.4459 44.6613 68.4641 44.9335 68.4641 45.2419C68.4641 45.5504 68.4641 45.8044 68.4095 46.0766C68.3731 46.3488 68.3185 46.6028 68.2094 46.8206C68.1184 47.0746 67.991 47.2742 67.8091 47.4375C67.6272 47.6008 67.4088 47.7278 67.1359 47.8367C66.8812 47.9093 66.5719 47.9637 66.2263 47.9819C65.8624 47.9819 65.4985 48 65.1165 48C64.7344 48 64.3705 48 64.0066 47.9819C63.6428 47.9637 63.3517 47.9093 63.097 47.8367C62.8241 47.746 62.5876 47.619 62.4238 47.4375C62.2419 47.2742 62.1145 47.0565 62.0235 46.8206C61.9326 46.6028 61.8598 46.3488 61.8234 46.0766C61.787 45.8044 61.7688 45.5323 61.7688 45.2419C61.7688 44.9335 61.7688 44.6431 61.8234 44.3891C61.8598 44.1169 61.9326 43.881 62.0235 43.6452C62.1145 43.4093 62.2601 43.2097 62.4238 43.0282C62.6057 42.8468 62.8241 42.7198 63.097 42.629C63.3699 42.5565 63.6792 42.502 64.043 42.4839C64.4069 42.4657 64.7526 42.4476 65.1165 42.4476H65.0983ZM65.0983 46.8024C65.353 46.8024 65.5895 46.8024 65.826 46.8024C66.0625 46.8024 66.2445 46.7661 66.39 46.7117C66.5356 46.6573 66.6265 46.5847 66.6993 46.5121C66.7721 46.4214 66.8085 46.3125 66.8448 46.2036C66.8812 46.0766 66.8994 45.9315 66.9176 45.7681C66.9176 45.6048 66.9176 45.4415 66.9176 45.2419C66.9176 45.0423 66.9176 44.8609 66.9176 44.6976C66.9176 44.5343 66.8812 44.3891 66.8448 44.2621C66.8085 44.1351 66.7539 44.0262 66.6993 43.9355C66.6265 43.8448 66.5356 43.7722 66.39 43.7359C66.2263 43.6996 66.0443 43.6633 65.8078 43.6633C65.5713 43.6633 65.3348 43.6633 65.0983 43.6633C64.8617 43.6633 64.607 43.6633 64.3705 43.6633C64.1522 43.6633 63.9521 43.6996 63.7883 43.754C63.661 43.7903 63.5518 43.8629 63.4972 43.9536C63.4245 44.0444 63.3699 44.1532 63.3335 44.2802C63.2971 44.4254 63.2789 44.5706 63.2607 44.7339C63.2607 44.8972 63.2425 45.0605 63.2425 45.2601C63.2425 45.4415 63.2425 45.6048 63.2607 45.7681C63.2607 45.9315 63.2971 46.0766 63.3335 46.2218C63.3699 46.3488 63.4245 46.4577 63.4972 46.5302C63.57 46.621 63.661 46.6935 63.7883 46.7298C63.9339 46.7843 64.1158 46.8024 64.3523 46.8206C64.5888 46.8387 64.8254 46.8206 65.0801 46.8206L65.0983 46.8024Z" fill="#181A1F" fill-opacity="0.3"/>
<path d="M75.3412 42.502C75.3412 42.502 75.4322 42.5383 75.4322 42.5927V45.1512C75.4322 45.4597 75.4322 45.75 75.3776 46.0222C75.3412 46.2944 75.2866 46.5484 75.1957 46.7843C75.1047 47.0202 74.9774 47.2198 74.7954 47.4012C74.6135 47.5827 74.3952 47.6915 74.1223 47.7823C73.8676 47.8548 73.6128 47.9093 73.3581 47.9456C73.1034 47.9637 72.7941 47.9819 72.4121 47.9819C72.03 47.9819 71.7207 47.9819 71.466 47.9456C71.2113 47.9093 70.9566 47.873 70.7019 47.7823C70.429 47.6915 70.1925 47.5645 70.0287 47.3831C69.865 47.2016 69.7194 47.002 69.6284 46.7661C69.5375 46.5302 69.4647 46.2762 69.4283 46.004C69.3919 45.7319 69.3737 45.4415 69.3737 45.1331V42.5746C69.3737 42.5746 69.4101 42.4839 69.4647 42.4839H70.7565C70.7565 42.4839 70.8474 42.5202 70.8474 42.5746V45.1331C70.8474 45.3145 70.8474 45.496 70.8656 45.6593C70.8838 45.8226 70.902 45.9859 70.9384 46.131C70.9748 46.2581 71.0294 46.3669 71.1021 46.4395C71.1749 46.5302 71.2659 46.6028 71.3932 46.6391C71.5388 46.6935 71.6843 46.7298 71.8117 46.748C71.939 46.748 72.1392 46.7661 72.3757 46.7661C72.6122 46.7661 72.8123 46.7661 72.9397 46.748C73.067 46.748 73.2126 46.6935 73.3581 46.6391C73.4855 46.5847 73.5947 46.5121 73.6492 46.4395C73.722 46.3488 73.7584 46.2399 73.7948 46.131C73.8312 46.004 73.8494 45.8407 73.8676 45.6774C73.8857 45.5141 73.8676 45.3145 73.8676 45.1331V42.5746C73.8676 42.5746 73.9039 42.4839 73.9585 42.4839H75.2503L75.3412 42.502Z" fill="#181A1F" fill-opacity="0.3"/>
<path d="M81.0722 42.502C81.0722 42.502 81.1632 42.5383 81.1632 42.5927V43.5907C81.1632 43.5907 81.1268 43.6815 81.0722 43.6815H78.889C78.6706 43.6815 78.4887 43.6996 78.3614 43.7359C78.234 43.7722 78.1248 43.8266 78.0521 43.881C77.9793 43.9536 77.9247 44.0262 77.9065 44.1169C77.8883 44.2077 77.8701 44.3165 77.8701 44.4254V47.8185C77.8701 47.8185 77.8337 47.9093 77.7792 47.9093H76.4874C76.4874 47.9093 76.3965 47.873 76.3965 47.8185V44.2802C76.3965 43.6814 76.5966 43.246 76.9786 42.9375C77.3607 42.629 77.9793 42.4839 78.798 42.4839H81.0904L81.0722 42.502Z" fill="#181A1F" fill-opacity="0.3"/>
<path d="M98.3561 42.502C98.3561 42.502 98.447 42.5383 98.447 42.5927V45.1512C98.447 45.4597 98.447 45.75 98.3925 46.0222C98.3561 46.2944 98.3015 46.5484 98.2105 46.7843C98.1196 47.0202 97.9922 47.2198 97.8103 47.4012C97.6283 47.5827 97.41 47.6915 97.1371 47.7823C96.8824 47.8548 96.6277 47.9093 96.373 47.9456C96.1183 47.9637 95.809 47.9819 95.4269 47.9819C95.0448 47.9819 94.7355 47.9819 94.4808 47.9456C94.2261 47.9093 93.9714 47.873 93.7167 47.7823C93.4438 47.6915 93.2073 47.5645 93.0436 47.3831C92.8798 47.2016 92.7343 47.002 92.6433 46.7661C92.5523 46.5302 92.4796 46.2762 92.4432 46.004C92.4068 45.7319 92.3886 45.4415 92.3886 45.1331V42.5746C92.3886 42.5746 92.425 42.4839 92.4796 42.4839H93.7713C93.7713 42.4839 93.8623 42.5202 93.8623 42.5746V45.1331C93.8623 45.3145 93.8623 45.496 93.8805 45.6593C93.8987 45.8226 93.9168 45.9859 93.9532 46.131C93.9896 46.2581 94.0442 46.3669 94.117 46.4395C94.1898 46.5302 94.2807 46.6028 94.4081 46.6391C94.5536 46.6935 94.6992 46.7298 94.8265 46.748C94.9539 46.748 95.154 46.7661 95.3905 46.7661C95.627 46.7661 95.8272 46.7661 95.9545 46.748C96.0819 46.748 96.2274 46.6935 96.373 46.6391C96.5003 46.5847 96.6095 46.5121 96.6641 46.4395C96.7368 46.3488 96.7732 46.2399 96.8096 46.131C96.846 46.004 96.8642 45.8407 96.8824 45.6774C96.9006 45.5141 96.8824 45.3145 96.8824 45.1331V42.5746C96.8824 42.5746 96.9188 42.4839 96.9734 42.4839H98.2651L98.3561 42.502Z" fill="#181A1F" fill-opacity="0.3"/>
<path d="M101.831 41.0685C101.831 41.0685 101.922 41.1048 101.922 41.1593V42.502H104.36C104.36 42.502 104.451 42.5383 104.451 42.5927V43.5907C104.451 43.5907 104.415 43.6815 104.36 43.6815H101.922V46.0222C101.922 46.1855 101.977 46.3488 102.086 46.5121C102.195 46.6754 102.34 46.748 102.522 46.748H104.214C104.214 46.748 104.305 46.7843 104.305 46.8387V47.8367C104.305 47.8367 104.269 47.9274 104.214 47.9274H102.322C102.049 47.9274 101.795 47.873 101.558 47.7641C101.322 47.6552 101.121 47.5282 100.958 47.3468C100.794 47.1653 100.648 46.9657 100.557 46.748C100.467 46.5121 100.412 46.2762 100.412 46.0222V43.6815H99.4659C99.4659 43.6815 99.3749 43.6452 99.3749 43.5907V42.5927C99.3749 42.5927 99.4113 42.502 99.4659 42.502H100.412V41.1593C100.412 41.1593 100.448 41.0685 100.503 41.0685H101.831Z" fill="#181A1F" fill-opacity="0.3"/>
<path d="M111.383 42.502C111.383 42.502 111.474 42.5383 111.474 42.5927V45.1512C111.474 45.4597 111.474 45.75 111.419 46.0222C111.383 46.2944 111.328 46.5484 111.237 46.7843C111.146 47.0202 111.019 47.2198 110.837 47.4012C110.655 47.5827 110.437 47.6915 110.164 47.7823C109.909 47.8548 109.654 47.9093 109.4 47.9456C109.145 47.9637 108.836 47.9819 108.453 47.9819C108.071 47.9819 107.762 47.9819 107.507 47.9456C107.253 47.9093 106.998 47.873 106.743 47.7823C106.47 47.6915 106.234 47.5645 106.07 47.3831C105.906 47.2016 105.761 47.002 105.67 46.7661C105.579 46.5302 105.506 46.2762 105.47 46.004C105.433 45.7319 105.415 45.4415 105.415 45.1331V42.5746C105.415 42.5746 105.452 42.4839 105.506 42.4839H106.798C106.798 42.4839 106.889 42.5202 106.889 42.5746V45.1331C106.889 45.3145 106.889 45.496 106.907 45.6593C106.925 45.8226 106.943 45.9859 106.98 46.131C107.016 46.2581 107.071 46.3669 107.144 46.4395C107.216 46.5302 107.307 46.6028 107.435 46.6391C107.58 46.6935 107.726 46.7298 107.853 46.748C107.98 46.748 108.181 46.7661 108.417 46.7661C108.654 46.7661 108.854 46.7661 108.981 46.748C109.108 46.748 109.254 46.6935 109.4 46.6391C109.527 46.5847 109.636 46.5121 109.691 46.4395C109.763 46.3488 109.8 46.2399 109.836 46.131C109.873 46.004 109.891 45.8407 109.909 45.6774C109.927 45.5141 109.909 45.3145 109.909 45.1331V42.5746C109.909 42.5746 109.945 42.4839 110 42.4839H111.292L111.383 42.502Z" fill="#181A1F" fill-opacity="0.3"/>
<path d="M117.132 42.502C117.132 42.502 117.223 42.5383 117.223 42.5927V43.5907C117.223 43.5907 117.186 43.6815 117.132 43.6815H114.949C114.73 43.6815 114.548 43.6996 114.421 43.7359C114.294 43.7722 114.184 43.8266 114.112 43.881C114.039 43.9536 113.984 44.0262 113.966 44.1169C113.948 44.2077 113.93 44.3165 113.93 44.4254V47.8185C113.93 47.8185 113.893 47.9093 113.839 47.9093H112.547C112.547 47.9093 112.456 47.873 112.456 47.8185V44.2802C112.456 43.6814 112.656 43.246 113.038 42.9375C113.42 42.629 114.039 42.4839 114.858 42.4839H117.15L117.132 42.502Z" fill="#181A1F" fill-opacity="0.3"/>
<path d="M122.626 42.502C122.899 42.502 123.154 42.5565 123.372 42.6472C123.591 42.7379 123.809 42.8831 123.973 43.0645C124.136 43.246 124.264 43.4456 124.373 43.6633C124.482 43.881 124.518 44.1351 124.518 44.371V45.2964C124.518 45.4234 124.464 45.5504 124.355 45.6593C124.245 45.7863 124.1 45.8407 123.936 45.8407H119.697V46.0403C119.697 46.2036 119.752 46.3669 119.861 46.5121C119.97 46.6573 120.116 46.7298 120.316 46.7298H124.136C124.136 46.7298 124.227 46.7661 124.227 46.8206V47.8185C124.227 47.8185 124.191 47.9093 124.136 47.9093H120.116C119.843 47.9093 119.588 47.8548 119.351 47.7278C119.115 47.6189 118.933 47.4556 118.769 47.2742C118.605 47.0927 118.478 46.875 118.369 46.6391C118.278 46.4032 118.223 46.1673 118.205 45.9133C118.205 45.8044 118.205 45.6956 118.205 45.5685C118.205 45.4415 118.205 45.3145 118.205 45.1875C118.205 45.0605 118.205 44.9335 118.205 44.8065C118.205 44.6794 118.205 44.5706 118.205 44.4617C118.205 44.2077 118.26 43.9718 118.369 43.7359C118.46 43.5 118.605 43.2823 118.769 43.1008C118.933 42.9194 119.133 42.7561 119.37 42.6472C119.606 42.5383 119.843 42.4839 120.134 42.4839H122.644L122.626 42.502ZM122.863 44.6794C122.863 44.6794 122.954 44.6794 122.99 44.625C123.027 44.5706 123.045 44.5524 123.045 44.498V44.3165C123.045 44.0806 122.99 43.9173 122.899 43.8266C122.79 43.7359 122.644 43.6996 122.463 43.6996H120.334C120.152 43.6996 119.988 43.754 119.879 43.881C119.77 44.0081 119.715 44.1532 119.715 44.3165V44.6794H122.881H122.863Z" fill="#181A1F" fill-opacity="0.3"/>
<path d="M13.465 44.7339H0.311035V45.2056H13.465V44.7339Z" fill="#181A1F" fill-opacity="0.3"/>
<path d="M91.3516 40.3246H85.475V47.8185C85.475 47.8911 85.5114 47.9456 85.566 47.9456H87.0579C87.0579 47.9456 87.1488 47.9093 87.1488 47.8185V44.7883H91.1514C91.2424 44.7883 91.297 44.752 91.297 44.6976V43.5726C91.297 43.5726 91.2424 43.4819 91.1514 43.4819H87.1306V41.631H91.3516C91.3516 41.631 91.4425 41.6129 91.4425 41.5403V40.4335C91.4425 40.4335 91.4061 40.3427 91.3516 40.3427V40.3246Z" fill="#181A1F" fill-opacity="0.3"/>
<path d="M141.238 44.7339H128.084V45.2056H141.238V44.7339Z" fill="#181A1F" fill-opacity="0.3"/>
</g>
<defs>
<clipPath id="clip0_66_991">
<rect width="141" height="69" fill="white" transform="translate(0.333496)"/>
</clipPath>
</defs>
</svg>
