<svg width="143" height="69" viewBox="0 0 143 69" fill="none" xmlns="http://www.w3.org/2000/svg">
<g clip-path="url(#clip0_66_980)">
<path d="M142.119 31.7083C142.119 31.7083 142.113 31.679 142.104 31.6516C142.096 31.6242 142.084 31.5968 142.084 31.5968C142.079 31.5812 142.065 31.5714 142.047 31.5714L132.595 31.5753L129.68 22.5296C129.674 22.5139 129.661 22.5022 129.643 22.5022C129.643 22.5022 129.614 22.5002 129.587 22.5002C129.56 22.5002 129.53 22.5022 129.53 22.5022C129.513 22.5022 129.499 22.5139 129.494 22.5296L126.577 31.5773L117.124 31.5733C117.109 31.5733 117.093 31.5831 117.089 31.5988C117.089 31.5988 117.078 31.6262 117.07 31.6535C117.062 31.6809 117.054 31.7083 117.054 31.7083C117.048 31.7239 117.054 31.7415 117.068 31.7513L124.718 37.3391L121.793 46.3829C121.787 46.3985 121.793 46.4161 121.807 46.4259C121.807 46.4259 121.828 46.4455 121.851 46.4611C121.875 46.4787 121.9 46.4924 121.9 46.4924C121.913 46.5022 121.931 46.5022 121.945 46.4924L129.589 40.8987L137.233 46.4924C137.247 46.5022 137.264 46.5022 137.278 46.4924C137.278 46.4924 137.303 46.4768 137.326 46.4611C137.349 46.4435 137.371 46.4259 137.371 46.4259C137.384 46.4161 137.39 46.3985 137.384 46.3829L134.46 37.3372L142.108 31.7494C142.121 31.7396 142.127 31.722 142.121 31.7063L142.119 31.7083Z" fill="#181A1F" fill-opacity="0.3"/>
<path d="M28.2314 40.6993C27.5206 41.417 26.5923 42.1329 25.6814 42.4243C24.8211 42.702 22.372 42.9191 21.6515 40.8811C21.4961 40.4411 21.6224 40.3042 22.0186 40.1868C22.609 40.0088 24.1335 39.559 25.7397 38.9527C27.1982 38.4051 28.4994 37.7323 28.9073 37.4584C29.6375 36.9753 29.7463 36.2967 29.4239 35.5671C28.4004 33.2495 26.0834 30.8243 22.2341 31.5616C19.1753 32.1484 16.9827 34.9237 16.9827 38.096C16.9827 42.0253 19.3346 44.3234 22.3254 45.0353C25.091 45.6984 28.3441 44.3469 29.7366 42.0781C30.2881 41.2039 28.7344 40.1653 28.2314 40.7012V40.6993ZM21.3019 37.6071C21.0028 36.7739 21.2417 34.2235 22.6362 33.7424C24.1044 33.2358 25.0056 33.9966 25.4425 35.487C25.6057 36.0385 25.5688 36.6213 25.3901 36.8404C25.1299 37.1572 24.6657 37.3489 24.2481 37.4878L23.1489 37.8555C22.0691 38.2251 21.5525 38.2994 21.3 37.6051L21.3019 37.6071Z" fill="#181A1F" fill-opacity="0.3"/>
<path d="M64.0733 40.6993C63.3605 41.417 62.4341 42.1329 61.5233 42.4243C60.6629 42.702 58.2139 42.9191 57.4933 40.8811C57.338 40.4411 57.4642 40.3042 57.8604 40.1868C58.4508 40.0088 59.9754 39.559 61.5815 38.9527C63.04 38.4051 64.3413 37.7323 64.7491 37.4584C65.4793 36.9753 65.5881 36.2967 65.2657 35.5671C64.2422 33.2495 61.9253 30.8243 58.076 31.5616C55.0152 32.1484 52.8245 34.9237 52.8245 38.096C52.8245 42.0253 55.1764 44.3234 58.1673 45.0353C60.9328 45.6984 64.1859 44.3469 65.5765 42.0781C66.128 41.2039 64.5743 40.1653 64.0713 40.7012L64.0733 40.6993ZM57.1438 37.6071C56.9651 37.1083 56.9767 35.9974 57.3166 35.0801C57.5438 34.4641 57.8837 33.9829 58.4799 33.7424C59.1519 33.4705 59.7248 33.5448 60.1735 33.8049C60.6881 34.1022 61.0533 34.6909 61.2863 35.487C61.4494 36.0385 61.4125 36.6213 61.2339 36.8404C60.9736 37.1572 60.5677 37.3176 60.0919 37.4878C59.6161 37.6599 59.1927 37.7968 58.9927 37.8613C57.9051 38.2036 57.3962 38.2994 57.1438 37.6071Z" fill="#181A1F" fill-opacity="0.3"/>
<path d="M91.395 40.6993C90.6842 41.417 89.7559 42.1329 88.845 42.4243C87.9846 42.702 85.5356 42.9191 84.8151 40.8811C84.6597 40.4411 84.786 40.3042 85.1822 40.1868C85.7745 40.0088 87.2971 39.559 88.9033 38.9527C90.3618 38.4051 91.663 37.7323 92.0689 37.4584C92.7992 36.9753 92.9079 36.2967 92.5875 35.5671C91.562 33.2495 89.247 30.8243 85.3977 31.5616C82.337 32.1484 80.1462 34.9237 80.1462 38.096C80.1462 42.0253 82.4981 44.3234 85.489 45.0353C88.2546 45.6984 91.5076 44.3469 92.9001 42.0781C93.4517 41.2039 91.898 40.1653 91.395 40.7012V40.6993ZM84.4655 37.6071C84.2868 37.1083 84.3004 35.9974 84.6384 35.0801C84.8656 34.4641 85.2055 33.9829 85.8017 33.7424C86.4717 33.4705 87.0466 33.5448 87.4952 33.8049C88.0079 34.1022 88.375 34.6909 88.6081 35.487C88.7712 36.0385 88.7362 36.6213 88.5556 36.8404C88.2954 37.1572 87.8895 37.3176 87.4137 37.4878C86.9378 37.6599 86.5145 37.7968 86.3144 37.8613C85.2268 38.2036 84.718 38.2994 84.4655 37.6071Z" fill="#181A1F" fill-opacity="0.3"/>
<path d="M15.8077 29.1325L16.6797 28.7354C16.8351 28.6631 16.8797 28.5477 16.8797 28.3736C16.8797 28.3306 16.8758 28.3012 16.8681 28.2426L16.7651 27.4935C16.7205 27.2216 16.536 27.1786 16.1786 27.1786H10.1542C9.79681 27.1786 9.61231 27.2236 9.56764 27.4935L9.46471 28.2426C9.45694 28.3012 9.45305 28.3286 9.45305 28.3736C9.45305 28.5477 9.49772 28.6631 9.65309 28.7354L10.3639 29.1325C10.7698 29.3672 10.797 29.8913 10.797 30.4174V33.492C10.797 33.7052 10.6242 33.8793 10.4125 33.8793H6.9885C6.77681 33.8793 6.60396 33.7052 6.60396 33.492V30.4174C6.60396 29.8913 6.63115 29.3652 7.03705 29.1325L7.74787 28.7354C7.90324 28.6631 7.94791 28.5477 7.94791 28.3736C7.94791 28.3306 7.94403 28.3012 7.93626 28.2426L7.83332 27.4935C7.78671 27.2216 7.60415 27.1786 7.2468 27.1786H1.22235C0.864996 27.1786 0.680494 27.2236 0.635825 27.4935L0.532893 28.2426C0.525124 28.3012 0.52124 28.3286 0.52124 28.3736C0.52124 28.5477 0.565909 28.6631 0.721279 28.7354L1.59329 29.1325C1.99725 29.3144 2.16039 29.8913 2.16039 30.4174V41.4444C2.16039 41.9705 1.99531 42.5475 1.59329 42.7294L0.721279 43.1264C0.563967 43.1988 0.52124 43.3142 0.52124 43.4883C0.52124 43.5313 0.525124 43.5606 0.532893 43.6193L0.635825 44.6168C0.682436 44.8886 0.864996 44.9336 1.22235 44.9336H7.54201C7.89936 44.9336 8.08386 44.8886 8.12853 44.6168L8.23146 43.6193C8.23923 43.5606 8.24311 43.5313 8.24311 43.4883C8.24311 43.3142 8.19844 43.1988 8.04307 43.1264L7.17106 42.7294C6.7671 42.5475 6.60396 41.9705 6.60396 41.4444V36.9617C6.60396 36.7485 6.77681 36.5744 6.9885 36.5744H10.4125C10.6242 36.5744 10.797 36.7485 10.797 36.9617V41.4444C10.797 41.9705 10.6319 42.5475 10.2299 42.7294L9.35789 43.1264C9.20252 43.1988 9.15785 43.3142 9.15785 43.4883C9.15785 43.5313 9.16173 43.5606 9.1695 43.6193L9.27244 44.6168C9.31905 44.8886 9.50161 44.9336 9.85896 44.9336H16.1786C16.536 44.9336 16.7205 44.8886 16.7651 44.6168L16.8681 43.6193C16.8758 43.5606 16.8797 43.5313 16.8797 43.4883C16.8797 43.3142 16.8351 43.1988 16.6797 43.1264L15.8077 42.7294C15.4057 42.5475 15.2406 41.9705 15.2406 41.4444V30.4174C15.2406 29.8913 15.4057 29.3124 15.8077 29.1325Z" fill="#181A1F" fill-opacity="0.3"/>
<path d="M33.4305 31.2526C34.6909 31.2526 35.7125 30.259 35.7125 29.0347C35.7125 27.8103 34.6909 26.8168 33.4305 26.8168C32.17 26.8168 31.1504 27.8103 31.1504 29.0347C31.1504 30.259 32.172 31.2526 33.4305 31.2526Z" fill="#181A1F" fill-opacity="0.3"/>
<path d="M37.0739 43.1636L36.3941 42.7822C36.0174 42.5984 35.8504 42.0546 35.8504 41.55V32.4007C35.8504 32.1875 35.6775 32.0134 35.4658 32.0134H31.197C30.8397 32.0134 30.6552 32.0584 30.6105 32.3283L30.5076 33.0774C30.4998 33.1361 30.4959 33.1634 30.4959 33.2084C30.4959 33.3825 30.5406 33.4979 30.696 33.5702L31.131 33.8225C31.5893 34.0533 31.6806 34.7261 31.6806 35.2542V41.55C31.6806 42.0546 31.5136 42.6003 31.1368 42.7822L30.4571 43.1636C30.3153 43.2418 30.2687 43.3435 30.2687 43.5117C30.2687 43.5548 30.2687 43.5802 30.2745 43.6369L30.3736 44.6305C30.4182 44.8906 30.593 44.9336 30.9368 44.9336H36.5942C36.936 44.9336 37.1127 44.8906 37.1574 44.6305L37.2564 43.6369C37.2642 43.5802 37.2642 43.5528 37.2642 43.5117C37.2642 43.3435 37.2195 43.2418 37.0758 43.1636H37.0739Z" fill="#181A1F" fill-opacity="0.3"/>
<path d="M51.6379 42.3343C51.331 42.4927 51.0125 42.7959 50.828 42.6942C50.692 42.6179 50.6784 42.4967 50.6784 42.1974V35.2307C50.6784 32.9326 49.6433 32.0545 48.4431 31.6692C47.0603 31.2252 45.3862 31.9489 44.5316 32.3537C44.0985 32.5649 43.8597 32.6823 43.8597 32.6823L43.7276 32.3987C43.6363 32.1933 43.514 32.0114 43.1974 32.0114H39.1753C38.8179 32.0114 38.6354 32.0545 38.5887 32.3263L38.4858 33.0754C38.4761 33.1341 38.4742 33.1615 38.4742 33.2065C38.4742 33.3805 38.5188 33.4959 38.6742 33.5683L39.1092 33.8206C39.5676 34.0514 39.6589 34.7242 39.6589 35.2523V41.5481C39.6589 42.0527 39.4918 42.5984 39.1151 42.7803L38.4353 43.1616C38.2935 43.2399 38.2489 43.3416 38.2489 43.5098C38.2489 43.5528 38.2489 43.5782 38.2547 43.635L38.3537 44.6285C38.3984 44.8886 38.5751 44.9317 38.917 44.9317H44.5744C44.9162 44.9317 45.0929 44.8886 45.1376 44.6285L45.2366 43.635C45.2444 43.5782 45.2425 43.5508 45.2425 43.5098C45.2425 43.3435 45.1978 43.2399 45.0541 43.1616L44.3743 42.7803C43.9975 42.5964 43.8286 42.0527 43.8286 41.5481V36.5353C43.8286 35.2347 44.4598 34.5051 45.324 34.3976C45.8969 34.3252 46.6369 34.6812 46.6369 35.706V42.4145C46.6369 44.3254 48.2489 45.0568 49.5151 45.0568C50.8552 45.0568 51.9991 44.4368 52.5099 43.3592C52.6711 43.0189 52.473 42.7568 52.3079 42.5729C52.1195 42.3617 51.9467 42.1739 51.6379 42.3343Z" fill="#181A1F" fill-opacity="0.3"/>
<path d="M106.845 42.3343C106.54 42.4927 106.219 42.7959 106.035 42.6942C105.899 42.6179 105.885 42.4967 105.885 42.1974V35.2307C105.885 32.9326 104.85 32.0545 103.652 31.6692C102.269 31.2252 100.595 31.9489 99.7403 32.3537C99.3072 32.5649 99.0683 32.6823 99.0683 32.6823L98.9363 32.3987C98.845 32.1933 98.7226 32.0114 98.4061 32.0114H94.3839C94.0266 32.0114 93.8421 32.0545 93.7974 32.3263L93.6945 33.0754C93.6867 33.1341 93.6828 33.1615 93.6828 33.2065C93.6828 33.3805 93.7275 33.4959 93.8829 33.5683L94.3179 33.8206C94.7762 34.0514 94.8656 34.7242 94.8656 35.2523V41.5481C94.8656 42.0527 94.6985 42.5984 94.3218 42.7803L93.642 43.1616C93.5003 43.2399 93.4537 43.3416 93.4537 43.5098C93.4537 43.5528 93.4536 43.5782 93.4614 43.635L93.5605 44.6285C93.6051 44.8886 93.7799 44.9317 94.1237 44.9317H99.7811C100.125 44.9317 100.3 44.8886 100.344 44.6285L100.443 43.635C100.451 43.5782 100.449 43.5508 100.449 43.5098C100.449 43.3435 100.405 43.2399 100.263 43.1616L99.583 42.7803C99.2062 42.5964 99.0372 42.0527 99.0372 41.5481V36.5353C99.0372 35.2347 99.6684 34.5051 100.533 34.3976C101.108 34.3252 101.846 34.6812 101.846 35.706V42.4145C101.846 44.3254 103.458 45.0568 104.724 45.0568C106.064 45.0568 107.208 44.4368 107.719 43.3592C107.88 43.0189 107.682 42.7568 107.517 42.5729C107.326 42.3617 107.155 42.1739 106.847 42.3343H106.845Z" fill="#181A1F" fill-opacity="0.3"/>
<path d="M80.3016 43.1636L79.6219 42.7822C79.2451 42.5984 78.878 42.2092 78.579 41.7222L75.5667 36.2184L77.4603 34.3878C77.8876 34.0025 78.2255 33.7306 78.544 33.5487C78.8606 33.3668 79.2101 33.2651 79.2101 33.2651C79.3519 33.2006 79.583 33.1048 79.5733 32.9072C79.5733 32.8681 79.5694 32.8407 79.5617 32.7879L79.4684 31.8785C79.4277 31.6301 79.2587 31.5909 78.9344 31.5909H74.0247C73.7003 31.5909 73.5314 31.6301 73.4906 31.8785L73.3974 32.7879C73.3896 32.8427 73.3857 32.8681 73.3857 32.9072C73.3857 33.0656 73.4265 33.1713 73.5683 33.2378L74.2131 33.5311C74.45 33.6309 74.415 33.8773 74.25 34.0455C74.0849 34.2118 73.6576 34.5873 73.3974 34.8122L71.5737 36.4707V27.914C71.5737 27.5072 71.2474 27.1786 70.8435 27.1786H66.7437C66.4019 27.1786 66.2251 27.2216 66.1805 27.4817L66.0833 28.1917C66.0756 28.2484 66.0756 28.2758 66.0756 28.3169C66.0756 28.4831 66.1222 28.5868 66.264 28.665L66.9437 29.0464C67.3321 29.2479 67.4875 29.774 67.4875 30.2786V41.55C67.4875 42.0546 67.3205 42.6003 66.9437 42.7822L66.264 43.1636C66.1222 43.2418 66.0756 43.3435 66.0756 43.5117C66.0756 43.5548 66.0756 43.5802 66.0833 43.6369L66.1805 44.6305C66.2251 44.8906 66.4019 44.9336 66.7437 44.9336H72.4011C72.7429 44.9336 72.9196 44.8906 72.9643 44.6305L73.0633 43.6369C73.0711 43.5802 73.0711 43.5528 73.0711 43.5117C73.0711 43.3435 73.0264 43.2418 72.8827 43.1636L72.203 42.7822C71.8126 42.5847 71.5757 42.0546 71.5757 41.55V40.0734L72.6516 39.0348L75.5162 44.2862C75.7803 44.7654 75.8231 44.9356 76.4077 44.9356H79.8238C80.1657 44.9356 80.3424 44.8926 80.3871 44.6324L80.4842 43.6389C80.4919 43.5821 80.4919 43.5548 80.4919 43.5137C80.4919 43.3455 80.4473 43.2438 80.3036 43.1656L80.3016 43.1636Z" fill="#181A1F" fill-opacity="0.3"/>
<path d="M108.398 25.1211C106.526 25.1211 105.005 26.6466 105.005 28.534C105.005 30.4214 106.524 31.9547 108.398 31.9547C110.272 31.9547 111.791 30.4253 111.791 28.534C111.791 26.6427 110.272 25.1211 108.398 25.1211ZM108.398 31.2213C106.924 31.2213 105.73 30.0185 105.73 28.534C105.73 27.0495 106.924 25.8506 108.398 25.8506C109.872 25.8506 111.067 27.0534 111.067 28.534C111.067 30.0145 109.868 31.2213 108.398 31.2213Z" fill="#181A1F" fill-opacity="0.3"/>
<path d="M109.311 28.4714C109.583 28.3736 109.859 28.0333 109.859 27.5365C109.859 26.7542 109.051 26.5117 108.754 26.5117H107.004V30.1925H107.841V28.755C107.841 28.755 107.891 28.7609 108.177 28.7745C108.596 28.7941 108.814 28.8704 108.938 29.2635C109.026 29.5373 109.068 29.7955 109.241 30.1925C109.61 30.2004 109.715 30.2003 110.102 30.2003C110.01 29.9715 109.874 29.6938 109.814 29.3026C109.75 28.8978 109.616 28.6748 109.315 28.4714H109.311ZM108.519 28.0235H107.843V27.1845H108.433C108.69 27.1845 108.998 27.2959 108.998 27.5854C108.998 27.8397 108.802 28.0235 108.519 28.0235Z" fill="#181A1F" fill-opacity="0.3"/>
</g>
<defs>
<clipPath id="clip0_66_980">
<rect width="142" height="69" fill="white" transform="translate(0.333252)"/>
</clipPath>
</defs>
</svg>
