<svg width="121" height="69" viewBox="0 0 121 69" fill="none" xmlns="http://www.w3.org/2000/svg">
<path d="M57.4957 23.7696H61.8453L59.7039 31.3759L63.1167 30.493L65.0573 23.7696H69.1392L65.8603 35.1791L71.2806 27.8444L72.4851 23.7017H76.2324L73.8903 31.7834C73.8234 32.0551 73.2881 33.8208 73.6896 33.8208C74.0911 33.8208 75.1617 31.9871 76.2993 29.8139C77.5707 27.5049 78.6414 25.06 79.1767 23.7017H83.1248L81.1842 30.561L86.203 23.7017H121L37.0861 60.1712L38.759 54.3986L104.672 27.0295H91.824L90.5526 31.308L86.4707 32.5984L88.1436 27.0295H86.1361L80.4482 34.4999L76.9016 35.7224C77.1023 33.8887 77.37 32.123 77.8384 30.3572L76.1655 33.4812C74.8271 35.9261 73.7565 37.8956 71.749 37.8956C70.2768 37.8956 69.6076 36.5373 69.6076 34.7037C69.6076 34.0925 69.6746 33.3454 69.8753 32.6663L64.522 39.933L60.1054 41.4271L62.1799 33.6171L58.834 34.4999L56.4919 42.7175L51.6739 44.3474L53.8153 36.7411L48.9303 43.057C46.8559 45.7736 44.7146 47.1997 43.0417 47.1997C39.7627 47.1997 39.2943 41.6988 39.6289 39.5255C37.8221 40.3405 37.2199 40.6801 36.6176 41.0196C37.4206 52.7686 25.5764 68.9999 18.0817 68.9999C15.7396 68.9999 13.9998 67.1663 13.9998 63.0915C13.9998 56.9793 18.4832 48.1505 30.5951 41.1554C30.2605 38.7785 29.4575 36.7411 27.9854 35.4507V35.1791C32.0673 31.9871 35.2124 28.3877 35.2124 25.1958C35.2124 23.7017 34.0748 23.1584 32.8703 23.1584C30.5951 23.1584 27.5839 26.0108 25.9779 28.3877H25.1079L26.4463 23.7696C29.5245 19.6269 34.4763 18.1328 37.153 18.1328C39.8296 18.1328 42.2387 19.2194 42.2387 22.5472C42.2387 26.4862 38.8259 30.6289 33.8071 33.7529C34.9447 35.1112 35.7477 36.6053 36.1492 38.2352C37.3537 37.624 38.6251 36.9448 39.9635 36.3336C41.4357 29.1348 46.5213 23.5659 51.0048 23.5659C53.2799 23.5659 54.2837 24.9242 54.2837 26.8257C54.2837 31.1722 50.4025 34.4999 44.8484 37.4202C44.7146 38.4389 44.7146 38.9822 44.7146 39.5934C44.7146 41.5629 45.1161 42.5137 45.8522 42.5137C46.3206 42.5137 46.9228 42.0383 47.592 41.2913L55.0198 32.3267L57.4957 23.7696ZM19.6877 61.7332C19.6877 62.684 19.9554 64.1781 21.026 64.1781C25.1749 64.1781 30.4613 52.9724 30.662 44.2116C23.3681 49.2371 19.6877 56.5718 19.6877 61.7332ZM49.8003 27.6407C49.8003 26.9616 49.5326 26.4862 49.1311 26.4862C47.9935 26.4862 46.3875 30.0856 45.4507 34.1604C48.4619 32.2588 49.8003 29.6781 49.8003 27.6407Z" fill="#181A1F" fill-opacity="0.3"/>
<path d="M60.172 0.000244141L62.1125 6.11245H68.4027L63.317 9.84768L65.2576 15.9599L60.172 12.2247L55.0194 15.9599L56.9599 9.84768L51.8743 6.11245H58.1645L60.172 0.000244141Z" fill="#181A1F" fill-opacity="0.3"/>
<path d="M79.4447 0.000244141L81.3852 6.11245H87.7423L82.5897 9.84768L84.5973 15.9599L79.4447 12.2247L74.359 15.9599L76.2996 9.84768L71.147 6.11245H77.5041L79.4447 0.000244141Z" fill="#181A1F" fill-opacity="0.3"/>
</svg>
