<svg width="75" height="69" viewBox="0 0 75 69" fill="none" xmlns="http://www.w3.org/2000/svg">
<path d="M43.7471 59.5754C43.8734 59.4223 43.987 59.18 43.987 58.8611V54.7924C43.987 54.4608 43.8608 54.2312 43.7471 54.0781L43.6713 54.0144H45.7044L46.4873 56.2337H46.6641L47.4091 54.0144H49.5306L49.4674 54.0909C49.3412 54.244 49.2149 54.4863 49.2149 54.8052V58.8739C49.2149 59.2055 49.3538 59.4351 49.4674 59.5881L49.5306 59.6646H47.4344L47.4975 59.5881C47.6238 59.4351 47.6743 59.1927 47.6743 58.8739V56.1061H47.4975L46.8914 57.9683H46.1716L45.5276 56.1061H45.3508V58.8739C45.3508 59.2055 45.4771 59.4351 45.6034 59.5881L45.6665 59.6646H43.6335L43.7471 59.5754ZM25.7906 59.6646H28.7581C29.7052 59.6646 30.1977 59.1545 30.1977 58.2871V55.3919C30.1977 54.5246 29.6799 54.0144 28.7581 54.0144H25.7906L25.8538 54.0909C25.98 54.244 26.1063 54.4863 26.1063 54.8052V58.8739C26.1063 59.2055 25.9674 59.4351 25.8538 59.5881L25.7906 59.6646ZM27.71 54.9837H28.253C28.594 54.9837 28.6318 55.1878 28.6318 55.3408V58.3637C28.6318 58.504 28.594 58.7208 28.253 58.7208H27.71V54.9837ZM31.2458 59.6646H33.0389L33.001 59.5881C32.9126 59.3203 32.8747 59.1672 32.9252 58.9121L32.9757 58.4785H34.0365L34.0996 58.9631C34.1249 59.1417 34.1122 59.3585 34.0112 59.5881L33.9733 59.6646H35.8801L35.8043 59.5498C35.7159 59.384 35.6781 59.1544 35.6402 58.8483L35.0088 54.8434C34.9583 54.5883 34.9835 54.295 35.0467 54.1164L35.0846 54.0016H32.0792L32.1297 54.1164C32.2181 54.3077 32.2181 54.5756 32.1802 54.8944L31.5614 58.9376C31.5362 59.1034 31.4857 59.3203 31.372 59.4861L31.2458 59.6646ZM33.0894 57.5091L33.4177 55.0092H33.5945L33.9228 57.5091H33.0894ZM36.7893 59.6646H38.8223L38.7592 59.5881C38.6203 59.4351 38.5066 59.1927 38.5066 58.8739V56.1061H38.6834L39.3274 57.9683H40.0472L40.6533 56.1061H40.8301V58.8739C40.8301 59.2055 40.7796 59.4351 40.6533 59.5881L40.5902 59.6646H42.6864L42.6233 59.5881C42.497 59.4351 42.3707 59.1927 42.3707 58.8739V54.8052C42.3707 54.4735 42.5096 54.244 42.6233 54.0909L42.6864 54.0144H40.565L39.8199 56.2337H39.6431L38.8602 54.0144H36.8272L36.8903 54.0909C37.0166 54.244 37.1302 54.4863 37.1302 54.8052V58.8739C37.1302 59.2055 37.004 59.4351 36.8903 59.5881L36.7893 59.6646ZM3.26294 52.2287H10.6248V49.7033L10.4481 49.8436C10.1324 50.086 9.86719 50.3028 9.12216 50.3028H6.96283V47.5733H8.32662C9.07165 47.5733 9.33683 47.7902 9.65252 48.0325L9.8293 48.1728V45.0479L9.65252 45.1882C9.33683 45.4306 9.07165 45.6474 8.32662 45.6474H6.96283V42.8669H9.12216C9.86719 42.8669 10.1324 43.0837 10.4481 43.3261L10.6248 43.4664V40.941H3.26294L3.40184 41.1195C3.64177 41.4384 3.85644 41.7062 3.85644 42.4588V50.7492C3.85644 51.5017 3.64177 51.7696 3.40184 52.0884L3.26294 52.2287ZM11.5719 44.0403C11.5719 45.3158 12.0391 46.2596 13.0241 46.9611L14.3121 47.8922C15.335 48.6447 15.6633 48.9253 15.6633 49.4482C15.6633 50.1115 15.0571 50.3793 14.1606 50.3793C13.4408 50.3793 12.6074 50.137 12.0896 49.8436L11.5719 49.563V52.3818L11.8118 52.318C12.077 52.2415 12.418 52.1777 12.7589 52.1777C13.3145 52.1777 14.148 52.3053 14.893 52.3053C17.3049 52.3053 18.6686 51.2084 18.6686 49.1294C18.6686 47.8922 18.1257 46.8973 16.9892 46.0938L15.7012 45.1627C14.9435 44.6143 14.5394 44.3082 14.5394 43.7597C14.5394 43.173 14.9309 42.8286 15.8653 42.8286C16.5093 42.8286 17.2038 43.0455 17.6837 43.3516L18.1635 43.6322V40.8644L17.9236 40.9282C17.7216 40.9792 17.3933 41.043 17.0776 41.043C16.5472 41.043 15.7517 40.9155 15.0066 40.9155C12.8852 40.9027 11.5719 41.9358 11.5719 44.0403ZM19.1737 43.5429L19.3632 43.4026C19.6915 43.1603 20.1713 42.8541 20.9795 42.8541H21.573V50.6472C21.573 51.3997 21.3204 51.7186 21.0553 52.0502L20.9164 52.2287H25.3739L25.235 52.0502C24.9825 51.7186 24.7173 51.3997 24.7173 50.6472V42.8541H25.2981C26.1063 42.8541 26.5988 43.173 26.9145 43.4026L27.1039 43.5429V40.9282H19.1359V43.5429H19.1737ZM27.9626 52.2287H32.256L32.1171 52.0502C31.8771 51.7313 31.6625 51.4635 31.6625 50.7109V47.6116H32.458L34.188 52.2032H37.7364C37.4207 51.8971 37.1176 51.5272 36.9282 51.0426L35.4002 47.1524C36.12 46.6933 36.4989 45.8897 36.4989 44.7673V43.6704C36.4989 41.8976 35.476 40.9027 33.6703 40.9027H27.9752L28.1141 41.0813C28.354 41.4001 28.5687 41.668 28.5687 42.4205V50.7109C28.5687 51.4635 28.354 51.7313 28.1141 52.0502L27.9626 52.2287ZM31.6625 45.7622V42.8031H32.6727C33.3419 42.8031 33.4303 43.1985 33.4303 43.5046V45.0479C33.4303 45.3668 33.3546 45.7749 32.6727 45.7749L31.6625 45.7622ZM38.5445 52.2287H45.9064V49.7033L45.7296 49.8436C45.414 50.086 45.1488 50.3028 44.4037 50.3028H42.2444V47.5733H43.6082C44.3532 47.5733 44.6184 47.7902 44.9341 48.0325L45.1109 48.1728V45.0479L44.9341 45.1882C44.6184 45.4306 44.3532 45.6474 43.6082 45.6474H42.2444V42.8669H44.4037C45.1488 42.8669 45.414 43.0837 45.7296 43.3261L45.9064 43.4664V40.941H38.5445L38.6834 41.1195C38.9234 41.4384 39.138 41.7062 39.138 42.4588V50.7492C39.138 51.5017 38.9234 51.7696 38.6834 52.0884L38.5445 52.2287ZM47.3586 52.2287H54.1902V49.6523L54.0134 49.7926C53.6977 50.035 53.3441 50.3156 52.5991 50.3156H51.1216V42.446C51.1216 41.6935 51.3363 41.4256 51.5762 41.1068L51.7151 40.9282H47.3586L47.4975 41.1068C47.7374 41.4256 47.9521 41.6935 47.9521 42.446V50.7364C47.9521 51.489 47.7374 51.7568 47.4975 52.0757L47.3586 52.2287ZM54.9226 52.2287H61.7541V49.6523L61.5773 49.7926C61.2616 50.035 60.908 50.3156 60.163 50.3156H58.6856V42.446C58.6856 41.6935 58.9003 41.4256 59.1402 41.1068L59.2791 40.9282H54.9226L55.0615 41.1068C55.3014 41.4256 55.5161 41.6935 55.5161 42.446V50.7364C55.5161 51.489 55.3014 51.7568 55.0615 52.0757L54.9226 52.2287ZM62.6254 52.2287H66.1611L66.098 52.0374C65.9086 51.5017 65.896 51.2211 65.9591 50.6854L66.0728 49.8309H68.2573L68.3836 50.8002C68.4341 51.1573 68.3962 51.5655 68.2321 52.0247L68.1689 52.216H72.0709L71.932 51.9992C71.7299 51.6548 71.5405 51.2084 71.4521 50.5962L70.1894 42.5991C70.1136 42.0506 70.1388 41.5659 70.2525 41.1578L70.3156 40.941H64.2544L64.3175 41.1578C64.469 41.6297 64.5196 42.0634 64.4312 42.7266L63.181 50.8002C63.1305 51.1446 63.0042 51.5272 62.8022 51.8971L62.6254 52.2287ZM66.3 47.9049L66.9314 42.9307H67.3355L67.9795 47.9177H66.2874V47.9049H66.3Z" fill="#181A1F" fill-opacity="0.3"/>
<path d="M37.648 9.33521L33.9986 20.7123H22.1539L31.7383 27.74L28.0889 39.1298L37.648 32.0893L47.2324 39.1298L43.583 27.74L53.1674 20.725H41.3227L37.648 9.33521Z" fill="#181A1F" fill-opacity="0.3"/>
</svg>
