<svg width="96" height="69" viewBox="0 0 96 69" fill="none" xmlns="http://www.w3.org/2000/svg">
<g clip-path="url(#clip0_66_982)">
<path d="M1.71344 30.5853C2.84616 26.4552 7.56384 25.4722 11.9074 25.3508C15.4781 25.251 19.4593 25.7219 19.4593 25.7219L17.5886 32.5428C17.5886 32.5428 13.6074 32.072 10.0367 32.1718C5.69321 32.2932 0.975498 33.2762 -0.157227 37.4063L1.71344 30.5853Z" fill="#181A1F" fill-opacity="0.3"/>
<path d="M61.8181 23.3232C56.1 23.3233 54.6351 28.8425 53.8153 31.8318L47.7071 54.0998H51.2707L56.6863 34.3549H60.3875L57.9236 43.3395H61.4872L64.4422 32.5648H57.1775C57.5497 31.2067 57.9467 29.76 58.2703 28.5803C58.8678 26.4016 59.8437 24.8195 61.2631 24.8727C62.8319 24.9315 62.0335 25.9588 61.8187 26.7421C61.5215 27.8257 62.3239 28.9154 63.7297 28.9154C66.7833 28.9154 67.5363 23.3232 61.8181 23.3232ZM41.603 27.2197V27.2199L37.1821 43.3395H40.8973L42.5343 37.3702H45.7614C49.3222 37.3702 51.6853 35.4102 52.3243 32.6858C52.9209 30.142 51.4312 27.2197 47.441 27.2197C45.4949 27.2197 43.5492 27.2197 41.603 27.2197ZM44.798 29.1166H46.2264C47.7219 29.1166 48.9084 30.3105 48.6219 32.3883C48.3563 34.3143 46.2592 35.4688 44.4307 35.4688H43.0558L44.798 29.1166ZM80.0278 32.2385C76.904 32.2385 74.6507 34.9186 74.1099 37.597C73.5903 40.1708 75.0703 43.5912 79.1449 43.5912C82.0408 43.5912 83.4973 42.3194 83.4973 42.3194L82.8307 40.6785C82.8307 40.6785 81.6132 41.6668 79.9168 41.6668C78.2204 41.6668 77.1561 40.3313 77.3915 38.2031H84.3191C84.8144 36.9498 85.0855 32.2385 80.0278 32.2385ZM93.8364 32.3834C91.513 32.3834 90.1432 34.7762 90.1432 34.7762L90.7496 32.565H87.186L84.231 43.3395H87.7946C87.7946 43.3395 88.6528 40.1915 89.0895 38.6199C89.7637 36.1632 91.1387 34.6248 91.7998 34.5619C92.5638 34.4892 92.4906 36.3251 93.9806 36.3251C96.2409 36.3251 96.7284 32.3834 93.8368 32.3834H93.8364ZM65.7849 32.565L65.2938 34.3553H69.8109L62.7097 43.3395H72.7376L73.2285 41.5492H68.133L75.234 32.565H65.7849ZM80.0145 34.0176V34.0177C81.952 34.0177 81.5111 36.5691 81.5111 36.5691L77.6297 36.5601C77.6297 36.5601 78.2734 34.0176 80.0145 34.0176Z" fill="#181A1F" fill-opacity="0.3"/>
<path d="M28.8195 43.3648C16.04 42.5701 1.18911 35.996 1.71333 30.5854L-0.0498556 37.0146C-0.584691 42.5348 13.1916 49.0888 26.9489 50.1858L28.8195 43.3648Z" fill="#181A1F" fill-opacity="0.3"/>
<path d="M33.4638 34.5002C32.3311 38.6303 27.6134 39.6133 23.2699 39.7347C19.6992 39.8345 15.718 39.3637 15.718 39.3637L17.5887 32.5427C17.5887 32.5427 21.5699 33.0136 25.1406 32.9137C29.4841 32.7923 34.2018 31.8094 35.3345 27.6792L33.4638 34.5002Z" fill="#181A1F" fill-opacity="0.3"/>
<path d="M6.35767 21.7209C19.1372 22.5156 33.9881 29.0897 33.4639 34.5003L35.2271 28.0711C35.7619 22.5509 21.9856 15.9969 8.22832 14.8999L6.35767 21.7209Z" fill="#181A1F" fill-opacity="0.3"/>
</g>
<defs>
<clipPath id="clip0_66_982">
<rect width="96" height="69" fill="white"/>
</clipPath>
</defs>
</svg>
