<svg width="160" height="69" viewBox="0 0 160 69" fill="none" xmlns="http://www.w3.org/2000/svg">
<g clip-path="url(#clip0_66_989)">
<path fill-rule="evenodd" clip-rule="evenodd" d="M38.3726 26.2778L60.5826 42.6047H54.9578L32.7478 26.2778H38.3726Z" fill="#181A1F" fill-opacity="0.3"/>
<path fill-rule="evenodd" clip-rule="evenodd" d="M54.9578 26.2778L32.7478 42.6047H38.3726L60.5826 26.2778H54.9578Z" fill="#181A1F" fill-opacity="0.3"/>
<path fill-rule="evenodd" clip-rule="evenodd" d="M6.59869 29.1558H26.28V26.1236H4.17743C2.106 26.1236 0.428467 27.7155 0.428467 29.6839V39.2301C0.428467 41.1958 2.106 42.7877 4.17743 42.7877H26.28V39.7581H6.59869C5.56297 39.7581 4.72559 38.9609 4.72559 37.9806V35.845H24.6962V32.8154H4.72559V30.936C4.72559 29.9531 5.56297 29.1585 6.59869 29.1585V29.1558Z" fill="#181A1F" fill-opacity="0.3"/>
<path fill-rule="evenodd" clip-rule="evenodd" d="M73.2206 29.1689H92.9047V26.1393H70.802C68.7306 26.1393 67.0531 27.7312 67.0531 29.6969V39.2458C67.0531 41.2089 68.7306 42.8034 70.802 42.8034H92.9047V39.7712H73.2206C72.1876 39.7712 71.3474 38.9739 71.3474 37.9937V35.8581H91.3208V32.8285H71.3474V30.949C71.3474 29.9662 72.1876 29.1715 73.2206 29.1715V29.1689Z" fill="#181A1F" fill-opacity="0.3"/>
<path fill-rule="evenodd" clip-rule="evenodd" d="M106.532 29.1846H126.213V26.1524H104.11C102.039 26.1524 100.361 27.7443 100.361 29.71V39.2589C100.361 41.2246 102.039 42.8165 104.11 42.8165H126.213V39.7869H106.532C105.496 39.7869 104.656 38.9896 104.656 38.0068V35.8738H124.629V32.8415H104.656V30.9647C104.656 29.9819 105.496 29.1846 106.532 29.1846Z" fill="#181A1F" fill-opacity="0.3"/>
<path fill-rule="evenodd" clip-rule="evenodd" d="M155.296 38.0512C155.296 39.0419 154.45 39.8444 153.409 39.8444H137.9V29.1558H153.409C154.45 29.1558 155.296 29.9583 155.296 30.949V38.0512ZM155.849 26.1001H133.565V42.9001H155.849C157.937 42.9001 159.628 41.2925 159.628 39.3137V29.6865C159.628 27.7051 157.934 26.1001 155.849 26.1001Z" fill="#181A1F" fill-opacity="0.3"/>
</g>
<defs>
<clipPath id="clip0_66_989">
<rect width="159" height="69" fill="white" transform="translate(0.666748)"/>
</clipPath>
</defs>
</svg>
