<svg width="32" height="33" viewBox="0 0 32 33" fill="none" xmlns="http://www.w3.org/2000/svg">
<g clip-path="url(#clip0_99_339)">
<path fill-rule="evenodd" clip-rule="evenodd" d="M4.00308 2.86223C2.20691 4.67123 2.20691 7.58478 2.20691 13.4103V19.5897C2.20691 25.4152 2.20691 28.3287 4.00308 30.1378C5.79772 31.9482 8.68813 31.9482 14.4675 31.9482H17.5325C23.3119 31.9482 26.2023 31.9482 27.9969 30.1378C29.7931 28.3287 29.7931 25.4152 29.7931 19.5897V13.4103C29.7931 7.58478 29.7931 4.67123 27.9969 2.86223C26.2023 1.0517 23.3119 1.0517 17.5325 1.0517H14.4675C8.68813 1.0517 5.79772 1.0517 4.00308 2.86223ZM9.86975 12.2517C9.56489 12.2517 9.27254 12.3738 9.05698 12.591C8.84142 12.8084 8.72032 13.1031 8.72032 13.4103C8.72032 13.7176 8.84142 14.0123 9.05698 14.2295C9.27254 14.4469 9.56489 14.569 9.86975 14.569H22.1302C22.4351 14.569 22.7275 14.4469 22.943 14.2295C23.1586 14.0123 23.2797 13.7176 23.2797 13.4103C23.2797 13.1031 23.1586 12.8084 22.943 12.591C22.7275 12.3738 22.4351 12.2517 22.1302 12.2517H9.86975ZM9.86975 18.431C9.56489 18.431 9.27254 18.5531 9.05698 18.7704C8.84142 18.9877 8.72032 19.2823 8.72032 19.5897C8.72032 19.8969 8.84142 20.1916 9.05698 20.4089C9.27254 20.6262 9.56489 20.7483 9.86975 20.7483H17.5325C17.8374 20.7483 18.1298 20.6262 18.3453 20.4089C18.5609 20.1916 18.682 19.8969 18.682 19.5897C18.682 19.2823 18.5609 18.9877 18.3453 18.7704C18.1298 18.5531 17.8374 18.431 17.5325 18.431H9.86975Z" fill="#0EA5E9"/>
</g>
<defs>
<clipPath id="clip0_99_339">
<rect width="32" height="32" fill="white" transform="translate(0 0.5)"/>
</clipPath>
</defs>
</svg>
