<svg width="32" height="33" viewBox="0 0 32 33" fill="none" xmlns="http://www.w3.org/2000/svg">
<g clip-path="url(#clip0_99_338)">
<g clip-path="url(#clip1_99_338)">
<path d="M16 0.5C11.7575 0.5 7.685 2.18675 4.6875 5.18625C1.68691 8.18694 0.000831175 12.2565 0 16.5C0 20.7417 1.6875 24.8142 4.6875 27.8137C7.685 30.8132 11.7575 32.5 16 32.5C20.2425 32.5 24.315 30.8132 27.3125 27.8137C30.3125 24.8142 32 20.7417 32 16.5C32 12.2583 30.3125 8.18575 27.3125 5.18625C24.315 2.18675 20.2425 0.5 16 0.5Z" fill="url(#paint0_linear_99_338)"/>
<path d="M7.2425 16.331C11.9075 14.299 15.0175 12.9592 16.5725 12.312C21.0175 10.4637 21.94 10.1427 22.5425 10.1319C22.675 10.1297 22.97 10.1625 23.1625 10.3181C23.3225 10.4494 23.3675 10.6269 23.39 10.7515C23.41 10.876 23.4375 11.1597 23.415 11.3812C23.175 13.9112 22.1325 20.0507 21.6025 22.8845C21.38 24.0835 20.9375 24.4855 20.51 24.5247C19.58 24.6102 18.875 23.9107 17.975 23.321C16.5675 22.3977 15.7725 21.8232 14.405 20.9225C12.825 19.8815 13.85 19.3092 14.75 18.3742C14.985 18.1295 19.08 14.4057 19.1575 14.068C19.1675 14.0257 19.1775 13.8682 19.0825 13.7852C18.99 13.702 18.8525 13.7305 18.7525 13.753C18.61 13.785 16.3625 15.272 12.0025 18.2137C11.365 18.6522 10.7875 18.866 10.2675 18.8547C9.6975 18.8425 8.5975 18.5317 7.78 18.2662C6.78 17.9405 5.9825 17.7682 6.0525 17.215C6.0875 16.927 6.485 16.6322 7.2425 16.331Z" fill="white"/>
</g>
</g>
<defs>
<linearGradient id="paint0_linear_99_338" x1="1600" y1="0.5" x2="1600" y2="3200.5" gradientUnits="userSpaceOnUse">
<stop stop-color="#2AABEE"/>
<stop offset="1" stop-color="#229ED9"/>
</linearGradient>
<clipPath id="clip0_99_338">
<rect width="32" height="32" fill="white" transform="translate(0 0.5)"/>
</clipPath>
<clipPath id="clip1_99_338">
<rect width="32" height="32" fill="white" transform="translate(0 0.5)"/>
</clipPath>
</defs>
</svg>
